<?xml version="1.0" encoding="utf-8"?>
<svg xmlns="http://www.w3.org/2000/svg" viewBox="0 0 500 500">
  <path fill="#1bd96a" d="M 453.012 351.506 C 453.012 360.077 448.274 367.521 441.057 371.357 L 262.858 471.508 C 259.248 474.216 254.737 475.568 249.999 475.568 C 245.263 475.568 240.753 474.216 237.143 471.508 L 58.944 371.357 C 51.727 367.521 46.989 360.077 46.989 351.506 L 46.989 148.493 C 46.989 139.923 51.727 132.478 58.944 128.645 L 237.143 28.491 C 240.753 25.784 245.263 24.432 249.999 24.432 C 254.737 24.432 259.248 25.784 262.858 28.491 L 441.057 128.645 C 448.274 132.478 453.012 139.923 453.012 148.493 L 453.012 351.506 Z" style=""/>
  <path d="M 339.892 342.205 L 279.599 342.205 Q 280.419 308.572 280.419 273.709 Q 280.419 238.846 277.001 194.549 Q 281.65 184.842 289.989 165.017 Q 290.947 162.83 294.911 159.48 Q 298.876 156.131 301.884 156.131 L 343.72 156.131 Q 342.763 174.178 342.763 196.189 Q 342.763 265.096 351.923 333.182 Q 351.923 334.959 347.548 338.582 Q 343.173 342.205 339.892 342.205 Z M 246.103 335.096 Q 245.146 337.146 241.864 339.676 Q 238.583 342.205 236.669 342.205 L 214.931 342.205 Q 209.189 308.162 200.029 270.564 Q 190.868 232.967 181.845 208.631 Q 182.392 205.486 185.468 189.422 Q 188.544 173.357 189.775 165.017 Q 190.185 163.103 194.423 159.617 Q 198.661 156.131 201.669 156.131 L 241.454 156.131 Q 250.888 210.818 257.109 230.027 Q 263.329 249.236 268.525 260.721 Q 255.4 299.959 246.103 335.096 Z M 178.837 243.357 Q 179.521 277.537 181.366 295.584 Q 183.212 313.631 189.364 333.182 Q 189.364 334.959 184.921 338.582 Q 180.478 342.205 177.197 342.205 L 133.583 342.205 Q 147.118 309.939 154.775 289.91 Q 162.431 269.881 166.943 252.244 Q 166.943 250.467 171.318 246.912 Q 175.693 243.357 178.837 243.357 Z" style="fill: rgb(255, 255, 255); paint-order: fill; text-transform: capitalize; text-wrap-mode: nowrap;"/>
</svg>